{"title":"River World(2003)MP-4[DaScubaDude]","uid":12488408,"size":1090062222,"categoryP":"video","categoryS":"movies","magnet":"?xt=urn:btih:ab0336ba11b0f591e4c190ece289c20d1ca9bdb3&amp;dn=River+World%282003%29MP-4%5BDaScubaDude%5D&amp;tr=udp%3A%2F%2Ftracker.leechers-paradise.org%3A6969&amp;tr=udp%3A%2F%2Fzer0day.ch%3A1337&amp;tr=udp%3A%2F%2Fopen.demonii.com%3A1337&amp;tr=udp%3A%2F%2Ftracker.coppersurfer.tk%3A6969&amp;tr=udp%3A%2F%2Fexodus.desync.com%3A6969","seeders":0,"leechers":1,"uploader":"dascuba","files":1,"time":1443131704,"description":"Riverworld (2003)\r\nTV Movie  |  86 min  |  Fantasy, Sci-Fi  |  22 March 2003 (USA)\r\n5.2 Your rating:   -/10   Ratings: 5.2/10 from 1,816 users   \r\nReviews: 62 user | 5 critic\r\nHale, an American astronaut dies and is reincarnated with other persons who have lived throughout all of human history and end up on a mysterious planet called 'Riverworld'. The humans are ... See full summary »\r\n\r\nDirector: Kari Skogland\r\nWriters: Philip Jose Farmer (novels), Stuart Hazeldine\r\nStars: Brad Johnson, Karen Holness, Emily Lloyd\r\n\r\nGeneral\r\nComplete name                            : C:River WorldRIVER_WORLD_Title1.mp4\r\nFormat                                   : MPEG-4\r\nFormat profile                           : Base Media\r\nCodec ID                                 : isom\r\nFile size                                : 1.02 GiB\r\nDuration                                 : 1h 29mn\r\nOverall bit rate mode                    : Constant\r\nOverall bit rate                         : 1 618 Kbps\r\nMovie name                               : RIVER_WORLD\r\nGenre                                    : Science_Fiction\r\nWriting application                      : Lavf54.6.100\r\n\r\nVideo\r\nID                                       : 1\r\nFormat                                   : MPEG-4 Visual\r\nFormat settings, BVOP                    : No\r\nFormat settings, QPel                    : No\r\nFormat settings, GMC                     : No warppoints\r\nFormat settings, Matrix                  : Default (H.263)\r\nCodec ID                                 : 20\r\nDuration                                 : 1h 29mn\r\nBit rate mode                            : Constant\r\nBit rate                                 : 1 485 Kbps\r\nWidth                                    : 720 pixels\r\nHeight                                   : 404 pixels\r\nDisplay aspect ratio                     : 16:9\r\nFrame rate mode                          : Constant\r\nFrame rate                               : 29.970 fps\r\nColor space                              : YUV\r\nChroma subsampling                       : 4:2:0\r\nBit depth                                : 8 bits\r\nScan type                                : Progressive\r\nCompression mode                         : Lossy\r\nBits/(Pixel*Frame)                       : 0.170\r\nStream size                              : 954 MiB (92%)\r\nWriting library                          : Lavc54.23.100\r\n\r\nAudio\r\nID                                       : 2\r\nFormat                                   : MPEG Audio\r\nFormat version                           : Version 1\r\nFormat profile                           : Layer 3\r\nCodec ID                                 : 6B\r\nDuration                                 : 1h 29mn\r\nBit rate mode                            : Constant\r\nBit rate                                 : 128 Kbps\r\nChannel(s)                               : 2 channels\r\nSampling rate                            : 44.1 KHz\r\nCompression mode                         : Lossy\r\nStream size                              : 82.2 MiB (8%)\r\nWriting library                          : LAME3.99.5","torrent":{"xt":"urn:btih:ab0336ba11b0f591e4c190ece289c20d1ca9bdb3","amp;dn":"River+World%282003%29MP-4%5BDaScubaDude%5D","amp;tr":["udp%3A%2F%2Ftracker.leechers-paradise.org%3A6969","udp%3A%2F%2Fzer0day.ch%3A1337","udp%3A%2F%2Fopen.demonii.com%3A1337","udp%3A%2F%2Ftracker.coppersurfer.tk%3A6969","udp%3A%2F%2Fexodus.desync.com%3A6969"],"infoHash":"ab0336ba11b0f591e4c190ece289c20d1ca9bdb3","infoHashBuffer":{"type":"Buffer","data":[171,3,54,186,17,176,245,145,228,193,144,236,226,137,194,13,28,169,189,179]},"announce":[],"urlList":[]}}